<svg xmlns="http://www.w3.org/2000/svg" viewBox="0 0 100 69.61" width="500px" height="500px"><defs><style>.a{fill:#fff;}</style></defs><title>Artboard 1</title><path class="a" d="M49.56,44.16a84.73,84.73,0,0,1-11.26-.75l1.3.18a65.77,65.77,0,0,1-16.67-4.36c.39.17.78.34,1.16.49a38.16,38.16,0,0,1-8.52-4.84l1,.76a22.54,22.54,0,0,1-4-3.93c.25.34.51.66.76,1a14.79,14.79,0,0,1-2-3.34c.16.39.33.78.48,1.16a11.76,11.76,0,0,1-.82-3c0,.43.11.86.17,1.29a12,12,0,0,1,0-2.93c-.06.42-.12.86-.17,1.29a12.37,12.37,0,0,1,.82-3c-.16.4-.33.79-.48,1.17a15,15,0,0,1,2-3.34l-.76,1a22.49,22.49,0,0,1,4-3.92l-1,.76a38.56,38.56,0,0,1,8.52-4.84l-1.16.48A66.17,66.17,0,0,1,39.6,11.06l-1.3.17A85.75,85.75,0,0,1,56,10.74c1.62.12,3.23.29,4.84.49l-1.29-.17a66.17,66.17,0,0,1,16.67,4.35c-.39-.16-.78-.33-1.17-.48a38.23,38.23,0,0,1,8.53,4.84l-1-.76a22.55,22.55,0,0,1,4,3.92l-.76-1a15.57,15.57,0,0,1,2,3.34l-.49-1.17a11.85,11.85,0,0,1,.83,3L88,25.86a11.28,11.28,0,0,1,0,3l.18-1.29a12.49,12.49,0,0,1-.83,3c.17-.39.33-.78.49-1.16a15.05,15.05,0,0,1-2,3.3l.76-1a23.07,23.07,0,0,1-4,3.94l1-.76a38.84,38.84,0,0,1-8.48,4.82l1.16-.48a57.83,57.83,0,0,1-7.91,2.65,5.14,5.14,0,0,0-2.92,2.25,4.94,4.94,0,0,0-.49,3.76,5,5,0,0,0,2.25,2.92,5.13,5.13,0,0,0,3.76.49A60.16,60.16,0,0,0,83,46.73a34.81,34.81,0,0,0,8.83-6.27,20.41,20.41,0,0,0,5.33-8.67,15.94,15.94,0,0,0-.07-9.13c-1.87-6-6.73-10.46-12-13.57a52.82,52.82,0,0,0-9.86-4.41A68.51,68.51,0,0,0,64.5,2a89.12,89.12,0,0,0-25.73-.59A68.44,68.44,0,0,0,16,8a37.15,37.15,0,0,0-8,5.47,25.71,25.71,0,0,0-3.24,3.67A15.29,15.29,0,0,0,3.06,20a16.39,16.39,0,0,0-1.7,8.53,16.11,16.11,0,0,0,.94,4.34,19.3,19.3,0,0,0,2.06,4.05,29,29,0,0,0,7,6.94,44,44,0,0,0,9.06,4.82,73.25,73.25,0,0,0,22.93,5q3.07.21,6.17.21A5.09,5.09,0,0,0,53,52.46,4.93,4.93,0,0,0,54.43,49,5,5,0,0,0,53,45.55a5.18,5.18,0,0,0-3.45-1.39Z"/><path class="a" d="M31.87,38.33l4.8,4.79,9.39,9.4V45.61l-4.79,4.8-7.64,7.64L31.87,59.8a4.93,4.93,0,0,0,0,6.92,4.91,4.91,0,0,0,3.46,1.42,5.13,5.13,0,0,0,3.46-1.42l4.79-4.8,7.64-7.64L53,52.53a5,5,0,0,0,0-6.91l-4.8-4.8-7.64-7.63-1.75-1.76a4.9,4.9,0,0,0-6.92,0,4.91,4.91,0,0,0-1.42,3.46A5.12,5.12,0,0,0,31.87,38.33Z"/></svg>